<svg width="293" height="58" viewBox="0 0 293 58" fill="none" xmlns="http://www.w3.org/2000/svg">
<mask id="path-1-outside-1_386_144" maskUnits="userSpaceOnUse" x="179.444" y="13.7158" width="4" height="13" fill="black">
<rect fill="white" x="179.444" y="13.7158" width="4" height="13"/>
<path d="M180.444 13.7158H182.889V25.908H180.444V13.7158Z"/>
</mask>
<path d="M180.444 13.7158H182.889V25.908H180.444V13.7158Z" fill="#F5F9F9"/>
<path d="M181.444 25.908V13.7158H179.444V25.908H181.444Z" fill="#2A8E9E" mask="url(#path-1-outside-1_386_144)"/>
<mask id="path-3-outside-2_386_144" maskUnits="userSpaceOnUse" x="185.25" y="6.00073" width="4" height="19" fill="black">
<rect fill="white" x="185.25" y="6.00073" width="4" height="19"/>
<path d="M186.25 6.00073H189V24.0032H186.25V6.00073Z"/>
</mask>
<path d="M186.25 6.00073H189V24.0032H186.25V6.00073Z" fill="#F5F9F9"/>
<path d="M187.25 24.0032V6.00073H185.25V24.0032H187.25Z" fill="#2A8E9E" mask="url(#path-3-outside-2_386_144)"/>
<mask id="path-5-outside-3_386_144" maskUnits="userSpaceOnUse" x="190.75" y="0" width="4" height="25" fill="black">
<rect fill="white" x="190.75" width="4" height="25"/>
<path d="M191.75 0H194.5V24.0033H191.75V0Z"/>
</mask>
<path d="M191.75 0H194.5V24.0033H191.75V0Z" fill="#F5F9F9"/>
<path d="M192.75 24.0033V0H190.75V24.0033H192.75Z" fill="#2A8E9E" mask="url(#path-5-outside-3_386_144)"/>
<path d="M194.283 27.4322H167L173.875 25.7177L181.821 24.0032H199.822C200.93 25.3748 196.591 26.8607 194.283 27.4322Z" fill="#F5F9F9"/>
<path d="M24.52 54.9998L14.36 42.5598V54.9998H8.76V27.0798H14.36V39.5998L24.52 27.0798H31.28L19.76 40.9198L31.6 54.9998H24.52ZM33.8434 43.8398C33.8434 41.5998 34.2834 39.6131 35.1634 37.8798C36.0701 36.1464 37.2834 34.8131 38.8034 33.8798C40.3501 32.9464 42.0701 32.4798 43.9634 32.4798C45.6168 32.4798 47.0568 32.8131 48.2834 33.4798C49.5368 34.1464 50.5368 34.9864 51.2834 35.9998V32.8398H56.9234V54.9998H51.2834V51.7598C50.5634 52.7998 49.5634 53.6664 48.2834 54.3598C47.0301 55.0264 45.5768 55.3598 43.9234 55.3598C42.0568 55.3598 40.3501 54.8798 38.8034 53.9198C37.2834 52.9598 36.0701 51.6131 35.1634 49.8798C34.2834 48.1198 33.8434 46.1064 33.8434 43.8398ZM51.2834 43.9198C51.2834 42.5598 51.0168 41.3998 50.4834 40.4398C49.9501 39.4531 49.2301 38.7064 48.3234 38.1998C47.4168 37.6664 46.4434 37.3998 45.4034 37.3998C44.3634 37.3998 43.4034 37.6531 42.5234 38.1598C41.6434 38.6664 40.9234 39.4131 40.3634 40.3998C39.8301 41.3598 39.5634 42.5064 39.5634 43.8398C39.5634 45.1731 39.8301 46.3464 40.3634 47.3598C40.9234 48.3464 41.6434 49.1064 42.5234 49.6398C43.4301 50.1731 44.3901 50.4398 45.4034 50.4398C46.4434 50.4398 47.4168 50.1864 48.3234 49.6798C49.2301 49.1464 49.9501 48.3998 50.4834 47.4398C51.0168 46.4531 51.2834 45.2798 51.2834 43.9198ZM74.6728 32.5198C77.3128 32.5198 79.4461 33.3598 81.0728 35.0398C82.6995 36.6931 83.5128 39.0131 83.5128 41.9998V54.9998H77.9128V42.7598C77.9128 40.9998 77.4728 39.6531 76.5928 38.7198C75.7128 37.7598 74.5128 37.2798 72.9928 37.2798C71.4461 37.2798 70.2195 37.7598 69.3128 38.7198C68.4328 39.6531 67.9928 40.9998 67.9928 42.7598V54.9998H62.3928V32.8398H67.9928V35.5998C68.7395 34.6398 69.6861 33.8931 70.8328 33.3598C72.0061 32.7998 73.2861 32.5198 74.6728 32.5198ZM114.507 43.8398C114.507 41.5998 114.947 39.6131 115.827 37.8798C116.734 36.1464 117.948 34.8131 119.468 33.8798C121.014 32.9464 122.734 32.4798 124.628 32.4798C126.281 32.4798 127.721 32.8131 128.948 33.4798C130.201 34.1464 131.201 34.9864 131.948 35.9998V32.8398H137.588V54.9998H131.948V51.7598C131.228 52.7998 130.228 53.6664 128.948 54.3598C127.694 55.0264 126.241 55.3598 124.588 55.3598C122.721 55.3598 121.014 54.8798 119.468 53.9198C117.948 52.9598 116.734 51.6131 115.827 49.8798C114.947 48.1198 114.507 46.1064 114.507 43.8398ZM131.948 43.9198C131.948 42.5598 131.681 41.3998 131.148 40.4398C130.614 39.4531 129.894 38.7064 128.988 38.1998C128.081 37.6664 127.108 37.3998 126.068 37.3998C125.028 37.3998 124.068 37.6531 123.188 38.1598C122.308 38.6664 121.588 39.4131 121.028 40.3998C120.494 41.3598 120.228 42.5064 120.228 43.8398C120.228 45.1731 120.494 46.3464 121.028 47.3598C121.588 48.3464 122.308 49.1064 123.188 49.6398C124.094 50.1731 125.054 50.4398 126.068 50.4398C127.108 50.4398 128.081 50.1864 128.988 49.6798C129.894 49.1464 130.614 48.3998 131.148 47.4398C131.681 46.4531 131.948 45.2798 131.948 43.9198ZM155.337 32.5198C157.977 32.5198 160.11 33.3598 161.737 35.0398C163.364 36.6931 164.177 39.0131 164.177 41.9998V54.9998H158.577V42.7598C158.577 40.9998 158.137 39.6531 157.257 38.7198C156.377 37.7598 155.177 37.2798 153.657 37.2798C152.11 37.2798 150.884 37.7598 149.977 38.7198C149.097 39.6531 148.657 40.9998 148.657 42.7598V54.9998H143.057V32.8398H148.657V35.5998C149.404 34.6398 150.35 33.8931 151.497 33.3598C152.67 32.7998 153.95 32.5198 155.337 32.5198Z" fill="white"/>
<path d="M94.4381 36.0798C95.1581 35.0131 96.1448 34.1464 97.3981 33.4798C98.6781 32.8131 100.131 32.4798 101.758 32.4798C103.651 32.4798 105.358 32.9464 106.878 33.8798C108.425 34.8131 109.638 36.1464 110.518 37.8798C111.425 39.5864 111.878 41.5731 111.878 43.8398C111.878 46.1064 111.425 48.1198 110.518 49.8798C109.638 51.6131 108.425 52.9598 106.878 53.9198C105.358 54.8798 103.651 55.3598 101.758 55.3598C100.105 55.3598 98.6515 55.0398 97.3981 54.3998C96.1715 53.7331 95.1848 52.8798 94.4381 51.8398V54.9998H88.8381V25.3998H94.4381V36.0798ZM106.158 43.8398C106.158 42.5064 105.878 41.3598 105.318 40.3998C104.785 39.4131 104.065 38.6664 103.158 38.1598C102.278 37.6531 101.318 37.3998 100.278 37.3998C99.2648 37.3998 98.3048 37.6664 97.3981 38.1998C96.5181 38.7064 95.7981 39.4531 95.2381 40.4398C94.7048 41.4264 94.4381 42.5864 94.4381 43.9198C94.4381 45.2531 94.7048 46.4131 95.2381 47.3998C95.7981 48.3864 96.5181 49.1464 97.3981 49.6798C98.3048 50.1864 99.2648 50.4398 100.278 50.4398C101.318 50.4398 102.278 50.1731 103.158 49.6398C104.065 49.1064 104.785 48.3464 105.318 47.3598C105.878 46.3731 106.158 45.1998 106.158 43.8398Z" fill="#F5F9F9"/>
<path d="M194.582 27.0798L184.342 54.9998H177.542L167.302 27.0798H173.302L180.982 49.2798L188.622 27.0798H194.582ZM218.54 43.4398C218.54 44.2398 218.486 44.9598 218.38 45.5998H202.18C202.313 47.1998 202.873 48.4531 203.86 49.3598C204.846 50.2664 206.06 50.7198 207.5 50.7198C209.58 50.7198 211.06 49.8264 211.94 48.0398H217.98C217.34 50.1731 216.113 51.9331 214.3 53.3198C212.486 54.6798 210.26 55.3598 207.62 55.3598C205.486 55.3598 203.566 54.8931 201.86 53.9598C200.18 52.9998 198.86 51.6531 197.9 49.9198C196.966 48.1864 196.5 46.1864 196.5 43.9198C196.5 41.6264 196.966 39.6131 197.9 37.8798C198.833 36.1464 200.14 34.8131 201.82 33.8798C203.5 32.9464 205.433 32.4798 207.62 32.4798C209.726 32.4798 211.606 32.9331 213.26 33.8398C214.94 34.7464 216.233 36.0398 217.14 37.7198C218.073 39.3731 218.54 41.2798 218.54 43.4398ZM212.74 41.8398C212.713 40.3998 212.193 39.2531 211.18 38.3998C210.166 37.5198 208.926 37.0798 207.46 37.0798C206.073 37.0798 204.9 37.5064 203.94 38.3598C203.006 39.1864 202.433 40.3464 202.22 41.8398H212.74ZM228.227 36.2798C228.947 35.1064 229.881 34.1864 231.027 33.5198C232.201 32.8531 233.534 32.5198 235.027 32.5198V38.3998H233.547C231.787 38.3998 230.454 38.8131 229.547 39.6398C228.667 40.4664 228.227 41.9064 228.227 43.9598V54.9998H222.627V32.8398H228.227V36.2798ZM247.279 55.3598C245.466 55.3598 243.839 55.0398 242.399 54.3998C240.959 53.7331 239.812 52.8398 238.959 51.7198C238.132 50.5998 237.679 49.3598 237.599 47.9998H243.239C243.346 48.8531 243.759 49.5598 244.479 50.1198C245.226 50.6798 246.146 50.9598 247.239 50.9598C248.306 50.9598 249.132 50.7464 249.719 50.3198C250.332 49.8931 250.639 49.3464 250.639 48.6798C250.639 47.9598 250.266 47.4264 249.519 47.0798C248.799 46.7064 247.639 46.3064 246.039 45.8798C244.386 45.4798 243.026 45.0664 241.959 44.6398C240.919 44.2131 240.012 43.5598 239.239 42.6798C238.492 41.7998 238.119 40.6131 238.119 39.1198C238.119 37.8931 238.466 36.7731 239.159 35.7598C239.879 34.7464 240.892 33.9464 242.199 33.3598C243.532 32.7731 245.092 32.4798 246.879 32.4798C249.519 32.4798 251.626 33.1464 253.199 34.4798C254.772 35.7864 255.639 37.5598 255.799 39.7998H250.439C250.359 38.9198 249.986 38.2264 249.319 37.7198C248.679 37.1864 247.812 36.9198 246.719 36.9198C245.706 36.9198 244.919 37.1064 244.359 37.4798C243.826 37.8531 243.559 38.3731 243.559 39.0398C243.559 39.7864 243.932 40.3598 244.679 40.7598C245.426 41.1331 246.586 41.5198 248.159 41.9198C249.759 42.3198 251.079 42.7331 252.119 43.1598C253.159 43.5864 254.052 44.2531 254.799 45.1598C255.572 46.0398 255.972 47.2131 255.999 48.6798C255.999 49.9598 255.639 51.1064 254.919 52.1198C254.226 53.1331 253.212 53.9331 251.879 54.5198C250.572 55.0798 249.039 55.3598 247.279 55.3598ZM281.196 43.4398C281.196 44.2398 281.143 44.9598 281.036 45.5998H264.836C264.969 47.1998 265.529 48.4531 266.516 49.3598C267.503 50.2664 268.716 50.7198 270.156 50.7198C272.236 50.7198 273.716 49.8264 274.596 48.0398H280.636C279.996 50.1731 278.769 51.9331 276.956 53.3198C275.143 54.6798 272.916 55.3598 270.276 55.3598C268.143 55.3598 266.223 54.8931 264.516 53.9598C262.836 52.9998 261.516 51.6531 260.556 49.9198C259.623 48.1864 259.156 46.1864 259.156 43.9198C259.156 41.6264 259.623 39.6131 260.556 37.8798C261.489 36.1464 262.796 34.8131 264.476 33.8798C266.156 32.9464 268.089 32.4798 270.276 32.4798C272.383 32.4798 274.263 32.9331 275.916 33.8398C277.596 34.7464 278.889 36.0398 279.796 37.7198C280.729 39.3731 281.196 41.2798 281.196 43.4398ZM275.396 41.8398C275.369 40.3998 274.849 39.2531 273.836 38.3998C272.823 37.5198 271.583 37.0798 270.116 37.0798C268.729 37.0798 267.556 37.5064 266.596 38.3598C265.663 39.1864 265.089 40.3464 264.876 41.8398H275.396Z" fill="#2A8E9E"/>
<path d="M279 34.9998L279.898 37.7637H282.804L280.453 39.4719L281.351 42.2358L279 40.5276L276.649 42.2358L277.547 39.4719L275.196 37.7637H278.102L279 34.9998Z" fill="white"/>
</svg>
